<svg width="129" height="129" viewBox="0 0 129 129" fill="none" xmlns="http://www.w3.org/2000/svg">
<circle opacity="0.5" cx="64.5" cy="64.5" r="64.5" fill="#00A991"/>
<path d="M88.4616 54.5625C90.1955 55.0573 91.8465 55.7288 93.4144 56.577C94.9823 57.4252 96.624 58.7152 98.3395 60.447C100.055 62.1788 101.521 64.2198 102.739 66.57C103.956 68.9203 104.971 71.9597 105.783 75.6883C106.594 79.4169 107 83.5962 107 88.226C107 93.6687 105.155 98.3251 101.466 102.195C97.7769 106.065 93.3314 108 88.1296 108H40.8704C35.6686 108 31.2231 106.065 27.5339 102.195C23.8446 98.3251 22 93.6687 22 88.226C22 83.5962 22.4058 79.4169 23.2174 75.6883C24.0291 71.9597 25.0436 68.9203 26.2611 66.57C27.4785 64.2198 28.945 62.1788 30.6605 60.447C32.376 58.7152 34.0177 57.4252 35.5856 56.577C37.1535 55.7288 38.8045 55.0573 40.5384 54.5625C37.6239 50.1447 36.1667 45.3382 36.1667 40.1429C36.1667 36.4673 36.9137 32.9595 38.4079 29.6197C39.902 26.2799 41.9219 23.3906 44.4674 20.952C47.013 18.5134 50.029 16.5784 53.5153 15.147C57.0016 13.7157 60.6632 13 64.5 13C68.3368 13 71.9984 13.7157 75.4847 15.147C78.971 16.5784 81.987 18.5134 84.5326 20.952C87.0781 23.3906 89.098 26.2799 90.5921 29.6197C92.0863 32.9595 92.8333 36.4673 92.8333 40.1429C92.8333 45.3382 91.3761 50.1447 88.4616 54.5625ZM64.5 19.7857C58.6341 19.7857 53.626 21.7737 49.4756 25.7497C45.3252 29.7257 43.25 34.5234 43.25 40.1429C43.25 45.7623 45.3252 50.56 49.4756 54.536C53.626 58.512 58.6341 60.5 64.5 60.5C70.3659 60.5 75.374 58.512 79.5244 54.536C83.6748 50.56 85.75 45.7623 85.75 40.1429C85.75 34.5234 83.6748 29.7257 79.5244 25.7497C75.374 21.7737 70.3659 19.7857 64.5 19.7857ZM88.1296 101.214C91.3761 101.214 94.1522 99.9508 96.458 97.4238C98.7638 94.8969 99.9167 91.8309 99.9167 88.226C99.9167 79.7792 98.4686 73.1172 95.5726 68.24C92.6765 63.3627 88.5169 60.8004 83.0938 60.553C77.7444 65.0415 71.5464 67.2857 64.5 67.2857C57.4536 67.2857 51.2556 65.0415 45.9062 60.553C40.4831 60.8004 36.3235 63.3627 33.4274 68.24C30.5314 73.1172 29.0833 79.7792 29.0833 88.226C29.0833 91.8309 30.2362 94.8969 32.542 97.4238C34.8478 99.9508 37.6239 101.214 40.8704 101.214H88.1296Z" fill="white"/>
</svg>
