<svg width="126" height="50" viewBox="0 0 126 50" fill="none" xmlns="http://www.w3.org/2000/svg">
<path d="M0 22.2222C0 9.93651 9.88291 0 22.1024 0C28.6138 0 34.4619 2.82159 38.5045 7.31664C38.8427 7.69266 39.1682 8.08039 39.4804 8.47915L28.2062 17.1581C27.951 16.889 27.7238 16.6502 27.6841 16.6103C26.2037 15.1219 24.1959 14.2857 22.1024 14.2857C20.0088 14.2857 18.001 15.1219 16.5207 16.6103C15.0403 18.0986 14.2087 20.1173 14.2087 22.2222C14.2087 24.3271 15.0403 26.3458 16.5207 27.8342C18.001 29.3226 20.0088 30.1587 22.1024 30.1587C24.1959 30.1587 26.2037 29.3226 27.6841 27.8342C27.8254 27.6921 27.9609 27.5451 28.0902 27.3937L39.1722 35.9246C33.9897 42.8953 26.2663 47.6748 23.3116 49.3445C22.5476 49.7762 22.1024 50 22.1024 50C22.1024 50 21.5628 49.7287 20.6522 49.2074C15.735 46.3921 0 36.2847 0 22.2222Z" fill="#1CA074"/>
<path d="M43 23.1836C43 20.9049 43.5615 18.6995 44.6846 16.5674C45.8076 14.4352 47.3945 12.8076 49.4453 11.6846C51.5124 10.5615 53.8154 10 56.3545 10C60.277 10 63.4915 11.2777 65.998 13.833C68.5046 16.3721 69.7578 19.5866 69.7578 23.4766C69.7578 27.3991 68.4883 30.6543 65.9492 33.2422C63.4264 35.8138 60.2445 37.0996 56.4033 37.0996C54.027 37.0996 51.7565 36.5625 49.5918 35.4883C47.4434 34.4141 45.8076 32.8434 44.6846 30.7764C43.5615 28.693 43 26.1621 43 23.1836ZM50.0312 23.5498C50.0312 26.1214 50.6416 28.0908 51.8623 29.458C53.083 30.8252 54.5885 31.5088 56.3789 31.5088C58.1693 31.5088 59.6667 30.8252 60.8711 29.458C62.0918 28.0908 62.7021 26.1051 62.7021 23.501C62.7021 20.9619 62.0918 19.0088 60.8711 17.6416C59.6667 16.2744 58.1693 15.5908 56.3789 15.5908C54.5885 15.5908 53.083 16.2744 51.8623 17.6416C50.6416 19.0088 50.0312 20.9782 50.0312 23.5498Z" fill="black"/>
<path d="M72.7363 29.1162L79.6211 28.0664C79.9141 29.401 80.5081 30.4183 81.4033 31.1182C82.2985 31.8018 83.5518 32.1436 85.1631 32.1436C86.9372 32.1436 88.2718 31.818 89.167 31.167C89.7692 30.7113 90.0703 30.1009 90.0703 29.3359C90.0703 28.8151 89.9076 28.3838 89.582 28.042C89.2402 27.7165 88.4753 27.4154 87.2871 27.1387C81.7533 25.918 78.2458 24.8031 76.7646 23.7939C74.7139 22.3942 73.6885 20.4492 73.6885 17.959C73.6885 15.7129 74.5755 13.8249 76.3496 12.2949C78.1237 10.765 80.8743 10 84.6016 10C88.1497 10 90.7865 10.5778 92.5117 11.7334C94.237 12.889 95.4251 14.598 96.0762 16.8604L89.6064 18.0566C89.3298 17.0475 88.8008 16.2744 88.0195 15.7373C87.2546 15.2002 86.1559 14.9316 84.7236 14.9316C82.917 14.9316 81.623 15.1839 80.8418 15.6885C80.321 16.0465 80.0605 16.5104 80.0605 17.0801C80.0605 17.5684 80.2884 17.9834 80.7441 18.3252C81.3626 18.7809 83.4948 19.4238 87.1406 20.2539C90.8027 21.084 93.3581 22.1012 94.8066 23.3057C96.2389 24.5264 96.9551 26.2272 96.9551 28.4082C96.9551 30.7845 95.9622 32.8271 93.9766 34.5361C91.9909 36.2451 89.0531 37.0996 85.1631 37.0996C81.6312 37.0996 78.8317 36.3835 76.7646 34.9512C74.7139 33.5189 73.3711 31.5739 72.7363 29.1162Z" fill="black"/>
<path d="M118 28.2617L124.836 29.4092C123.957 31.9157 122.565 33.8281 120.661 35.1465C118.773 36.4486 116.405 37.0996 113.557 37.0996C109.048 37.0996 105.712 35.6266 103.547 32.6807C101.838 30.3206 100.983 27.3421 100.983 23.7451C100.983 19.4482 102.106 16.0872 104.353 13.6621C106.599 11.2207 109.439 10 112.873 10C116.73 10 119.774 11.2777 122.004 13.833C124.234 16.3721 125.3 20.2702 125.202 25.5273H108.015C108.063 27.5618 108.617 29.1488 109.675 30.2881C110.733 31.4111 112.051 31.9727 113.63 31.9727C114.704 31.9727 115.607 31.6797 116.34 31.0938C117.072 30.5078 117.626 29.5638 118 28.2617ZM118.391 21.3281C118.342 19.3424 117.829 17.8369 116.853 16.8115C115.876 15.7699 114.688 15.249 113.288 15.249C111.791 15.249 110.554 15.7943 109.577 16.8848C108.601 17.9753 108.12 19.4564 108.137 21.3281H118.391Z" fill="black"/>
</svg>
