<svg width="79" height="100" viewBox="0 0 79 100" fill="none" xmlns="http://www.w3.org/2000/svg">
<path d="M0 44.4444C0 19.873 19.7658 0 44.2047 0C57.2277 0 68.9237 5.64317 77.009 14.6333C77.6853 15.3853 78.3364 16.1608 78.9609 16.9583L56.4123 34.3162C55.902 33.778 55.4476 33.3004 55.3681 33.2205C52.4074 30.2438 48.3918 28.5714 44.2047 28.5714C40.0176 28.5714 36.0021 30.2438 33.0413 33.2205C30.0806 36.1973 28.4173 40.2347 28.4173 44.4444C28.4173 48.6542 30.0806 52.6916 33.0413 55.6684C36.0021 58.6451 40.0176 60.3175 44.2047 60.3175C48.3918 60.3175 52.4074 58.6451 55.3681 55.6684C55.6508 55.3841 55.9217 55.0902 56.1805 54.7873L78.3444 71.8492C67.9795 85.7906 52.5327 95.3496 46.6231 98.6889C45.0951 99.5524 44.2047 100 44.2047 100C44.2047 100 43.1255 99.4575 41.3043 98.4148C31.47 92.7843 0 72.5694 0 44.4444Z" fill="#1CA074"/>
</svg>
